<?xml version="1.0" standalone="no"?><!DOCTYPE svg PUBLIC "-//W3C//DTD SVG 1.1//EN" "http://www.w3.org/Graphics/SVG/1.1/DTD/svg11.dtd" [<!ENTITY nbsp " ">]><svg data-noselect="" viewBox="115 -73.0176135231863 1002.2336566971101 751.6752425228326" width="1002.2336566971101" ref="svg_canvas" height="751.6752425228326" preserveAspectRatio="none" version="1.1" xmlns="http://www.w3.org/2000/svg" style="background: #ffffff;">
    <def></def>
    <g id="shape_tDKxdcduu2" ref="shape_tDKxdcduu2" key="shape_tDKxdcduu2" transform="translate(195,215) rotate(0,71.353290901515,71.353290901515) scale(1,1)" style="cursor:move;display:inline;opacity:1;" filter="">
            <g style="display:inline"><rect fill="rgba(0,0,0,0)" width="162.70658180303" height="162.70658180303" x="-10" y="-10"></rect><svg version="1.1" id="图层_1" xmlns="http://www.w3.org/2000/svg" xmlns:xlink="http://www.w3.org/1999/xlink" x="0px" y="0px" width="142.70658180303" height="142.70658180303" viewBox="0 0 100 100" enable-background="new 0 0 100 100" xml:space="preserve" shapetype="ellipse" preserveAspectRatio="none" class="style-removed" data-parent="shape_tDKxdcduu2">
	 <linearGradient class="" x1="0%" y1="0%" x2="0%" y2="100%" gradientTransform="translate(0.5,0.5) rotate(0) translate(-0.5,-0.5)">
		<stop id="stop1_4NyrrmMbYp_c" offset="0%" class="" stop-color="#05a"></stop>
		<stop id="stop2_dVjGsOQpgg_c" offset="100%" class="" stop-color="#0a5"></stop>
	</linearGradient>

	<radialGradient class="" cx="50%" cy="50%" r="50%" fx="50%" fy="50%">
		<stop offset="0%" class="" stop-color="#05a"></stop>
		<stop offset="100%" class="" stop-color="#0a5"></stop>
	</radialGradient>
	<clipPath id="f_ellipse_o5UjVSZdth_c" class="">
		<ellipse fill="none" class="" stroke="#FF4C1B" stroke-width="1" stroke-miterlimit="10" cx="50" cy="50" rx="50" ry="50"></ellipse>
	</clipPath>
	<ellipse class="" fill="#FF4C1B" opacity="1" cx="50" cy="50" rx="49" ry="49"></ellipse>
	<ellipse class="" fill="none" stroke="#FF4C1B" stroke-width="0" stroke-miterlimit="10" cx="50" cy="50" rx="50" ry="50" clip-path="url(#f_ellipse_o5UjVSZdth_c)"></ellipse>
</svg></g>
        </g><g id="shape_dTulsl9mQK" ref="shape_dTulsl9mQK" key="shape_dTulsl9mQK" transform="translate(299.28193031744,234.71579104104) rotate(0,8.6905798157943,8.6905798157943) scale(1,1)" style="cursor:move;display:inline;opacity:1;" filter="">
            <g style="display:inline"><rect fill="rgba(0,0,0,0)" width="37.381159631589" height="37.381159631589" x="-10" y="-10"></rect><svg version="1.1" id="图层_1" xmlns="http://www.w3.org/2000/svg" xmlns:xlink="http://www.w3.org/1999/xlink" x="0px" y="0px" width="17.381159631589" height="17.381159631589" viewBox="0 0 100 100" enable-background="new 0 0 100 100" xml:space="preserve" shapetype="ellipse" preserveAspectRatio="none" class="style-removed" data-parent="shape_dTulsl9mQK">
	 <linearGradient class="" x1="0%" y1="0%" x2="0%" y2="100%" gradientTransform="translate(0.5,0.5) rotate(0) translate(-0.5,-0.5)">
		<stop id="stop1_blWpR6owon_c" offset="0%" class="" stop-color="#05a"></stop>
		<stop id="stop2_2WMJdCPnIG_c" offset="100%" class="" stop-color="#0a5"></stop>
	</linearGradient>

	<radialGradient class="" cx="50%" cy="50%" r="50%" fx="50%" fy="50%">
		<stop offset="0%" class="" stop-color="#05a"></stop>
		<stop offset="100%" class="" stop-color="#0a5"></stop>
	</radialGradient>
	<clipPath id="f_ellipse_HiB3cgO7t4_c" class="">
		<ellipse fill="none" class="" stroke="#dddddd" stroke-width="1" stroke-miterlimit="10" cx="50" cy="50" rx="50" ry="50"></ellipse>
	</clipPath>
	<ellipse class="" fill="#FFFFFF" opacity="1" cx="50" cy="50" rx="49" ry="49"></ellipse>
	<ellipse class="" fill="none" stroke="#dddddd" stroke-width="0" stroke-miterlimit="10" cx="50" cy="50" rx="50" ry="50" clip-path="url(#f_ellipse_HiB3cgO7t4_c)"></ellipse>
</svg></g>
        </g><g id="shape_QVcmHQPsq7" ref="shape_QVcmHQPsq7" key="shape_QVcmHQPsq7" transform="translate(98.29999573943999,-223.09493452354002) rotate(0,191.659256816392,534.477617128739) scale(1,1)" style="cursor:move;display:inline;opacity:1;" filter="">
            <g style="display:inline"><svg xmlns="http://www.w3.org/2000/svg" version="1.1" xmlns:xlink="http://www.w3.org/1999/xlink" width="604.08" height="1068.4699" viewBox="0 0 604.08 1068.4699" preserveAspectRatio="none" data-parent="shape_QVcmHQPsq7"><rect fill="rgba(0,0,0,0)" width="71" height="159" x="133.27" y="454.73495"></rect><g data-width="70.76637" transform="translate(133.386815, 0)"><path d="M21.06-80.76L65.44-80.76Q66.37-79.30 67.10-76.83Q67.83-74.36 67.83-71.70L67.83-71.70Q67.83-66.50 65.64-64.30Q63.44-62.10 59.70-62.10L59.70-62.10L31.72-62.10L31.72-47.04L60.90-47.04Q61.97-45.58 62.70-43.18Q63.44-40.78 63.44-38.12L63.44-38.12Q63.44-33.05 61.24-30.85Q59.04-28.65 55.31-28.65L55.31-28.65L31.98-28.65L31.98-0.53Q30.52-0.13 27.39 0.27Q24.26 0.67 21.19 0.67L21.19 0.67Q18.12 0.67 15.79 0.20Q13.46-0.27 11.86-1.47Q10.26-2.67 9.46-4.80Q8.66-6.93 8.66-10.40L8.66-10.40L8.66-68.37Q8.66-74.10 11.99-77.43Q15.33-80.76 21.06-80.76L21.06-80.76Z" transform="translate(0 557.73495) " fill="rgb(255, 255, 255)" stroke="rgb(255, 255, 255)" stroke-width="0.222" data-glyph-w="70.76637" data-glyph-h="268.13924" data-glyph-ascender="157.92495" data-glyph-descender="-110.21429"></path></g></svg></g>
        </g><g id="shape_wifAVftsRN" ref="shape_wifAVftsRN" key="shape_wifAVftsRN" transform="translate(236.17365669711,-117.24076044399501) rotate(0,252.61756103921,410.956572265625) scale(1,1)" style="cursor:move;display:inline;opacity:1;" filter="">
            <g style="display:inline"><svg xmlns="http://www.w3.org/2000/svg" version="1.1" xmlns:xlink="http://www.w3.org/1999/xlink" width="1143.24" height="821.91314453125" viewBox="0 0 1143.24 821.91314453125" preserveAspectRatio="none" data-parent="shape_wifAVftsRN"><rect fill="rgba(0,0,0,0)" width="687" height="136" x="114.06" y="342.956572265625"></rect><g data-width="686.1978808593751" transform="translate(114.06, 0)"><path d="M37.31-48.45L37.31-48.45L78.08-48.45Q82.04-48.45 82.04-44.67L82.04-44.67L82.04-43.16Q82.04-39.38 78.08-39.38L78.08-39.38L37.31-39.38Q34.36-39.38 33.08-38.21L33.08-38.21Q31.80-36.98 31.80-34.20L31.80-34.20L31.80 1.06Q31.80 5.29 27.85 5.24L27.85 5.24L10.97 5.18Q6.96 5.18 6.96 0.95L6.96 0.95L6.96-74.24Q6.96-78.47 10.92-78.47L10.92-78.47L79.20-78.47Q83.15-78.47 83.15-74.57L83.15-74.57L83.15-72.51Q83.15-68.61 79.20-68.61L79.20-68.61L37.31-68.61Q34.36-68.61 33.08-67.44L33.08-67.44Q31.80-66.22 31.80-63.43L31.80-63.43L31.80-53.63Q31.80-50.79 33.08-49.62L33.08-49.62Q34.36-48.45 37.31-48.45Z" transform="translate(0 453.956572265625) " fill="rgb(255, 76, 27)" stroke="rgb(255, 76, 27)" stroke-width="0.19" data-glyph-w="89.053681640625" data-glyph-h="136.89427734375" data-glyph-ascender="111.776572265625" data-glyph-descender="-25.117705078125"></path><path d="M28.46-56.97L28.46-53.24L31.02-57.53Q32.25-59.48 33.30-60.15L33.30-60.15Q34.36-60.82 36.53-60.82L36.53-60.82L55.53-60.87Q58.98-60.87 60.09-59.76L60.09-59.76Q61.10-58.70 61.10-57.03L61.10-57.03L61.10-54.47L64.21-57.70Q66.39-59.93 68.11-60.48L68.11-60.48Q69.28-60.87 71.62-60.87L71.62-60.87L91.23-60.82Q95.12-60.82 95.12-56.58L95.12-56.58L95.12-0.45Q95.12 3.79 91.17 3.79L91.17 3.79L77.41 3.79Q73.46 3.79 73.46-0.45L73.46-0.45L73.46-46.56Q73.46-51.74 68.34-51.74L68.34-51.74L66.22-51.74Q61.10-51.74 61.10-46.56L61.10-46.56L61.10-0.45Q61.10 3.79 57.14 3.79L57.14 3.79L44.16 3.79Q40.21 3.79 40.21-0.45L40.21-0.45L40.21-46.56Q40.21-51.74 35.14-51.74L35.14-51.74L33.53-51.74Q28.46-51.74 28.46-46.56L28.46-46.56L28.46-0.45Q28.46 3.79 24.51 3.79L24.51 3.79L10.75 3.79Q6.79 3.79 6.79-0.45L6.79-0.45L6.79-56.58Q6.79-60.82 10.75-60.82L10.75-60.82L24.51-60.82Q28.46-60.82 28.46-56.97L28.46-56.97Z" transform="translate(89.053681640625 453.956572265625) " fill="rgb(255, 76, 27)" stroke="rgb(255, 76, 27)" stroke-width="0.19" data-glyph-w="102.420087890625" data-glyph-h="136.89427734375" data-glyph-ascender="111.776572265625" data-glyph-descender="-25.117705078125"></path><path d="M30.52-74.07L30.52-74.07L30.52-0.45Q30.52 3.79 26.57 3.79L26.57 3.79L11.14 3.79Q7.13 3.79 7.13-0.45L7.13-0.45L7.13-74.07Q7.13-78.30 11.14-78.30L11.14-78.30L26.57-78.30Q30.52-78.30 30.52-74.07ZM48.95 0.33L30.41-34.98L47.06-57.20Q48.73-59.42 49.68-59.98L49.68-59.98Q50.74-60.59 53.08-60.59L53.08-60.59L66.89-60.59Q68.06-60.59 68.56-59.87L68.56-59.87Q69.12-59.15 69.06-58.65L69.06-58.65Q69.06-58.09 68.39-57.25L68.39-57.25L53.91-37.82Q52.63-36.09 52.63-34.47L52.63-34.47Q52.63-33.47 53.47-31.86L53.47-31.86L70.23 0.06Q70.79 1.11 70.79 1.56L70.79 1.56Q70.79 2.23 70.12 3.01L70.12 3.01Q69.45 3.79 68.11 3.79L68.11 3.79L54.08 3.79Q52.02 3.79 51.02 3.12L51.02 3.12Q50.07 2.45 48.95 0.33L48.95 0.33Z" transform="translate(191.47376953125 453.956572265625) " fill="rgb(255, 76, 27)" stroke="rgb(255, 76, 27)" stroke-width="0.19" data-glyph-w="78.08208984375" data-glyph-h="136.89427734375" data-glyph-ascender="111.776572265625" data-glyph-descender="-25.117705078125"></path><path d="M10.80-78.36L10.80-78.36L26.34-78.36Q30.46-78.36 30.46-74.13L30.46-74.13L30.46 0.95Q30.46 5.18 26.34 5.18L26.34 5.18L10.80 5.18Q6.68 5.18 6.68 0.95L6.68 0.95L6.68-74.13Q6.68-78.36 10.80-78.36Z" transform="translate(269.555859375 453.956572265625) " fill="rgb(255, 76, 27)" stroke="rgb(255, 76, 27)" stroke-width="0.19" data-glyph-w="37.98287109375" data-glyph-h="136.89427734375" data-glyph-ascender="111.776572265625" data-glyph-descender="-25.117705078125"></path><path d="M9.58-60.59L9.58-60.59L26.45-60.59Q30.58-60.59 30.58-56.36L30.58-56.36L30.58-0.45Q30.58 3.79 26.45 3.79L26.45 3.79L9.58 3.79Q5.46 3.79 5.46-0.45L5.46-0.45L5.46-56.36Q5.46-60.59 9.58-60.59ZM9.58-78.47L9.58-78.47L26.40-78.47Q30.58-78.47 30.58-74.24L30.58-74.24L30.58-69.51Q30.58-65.27 26.40-65.27L26.40-65.27L9.58-65.27Q5.46-65.27 5.46-69.51L5.46-69.51L5.46-74.24Q5.46-78.47 9.58-78.47Z" transform="translate(307.53873046875003 453.956572265625) " fill="rgb(255, 76, 27)" stroke="rgb(255, 76, 27)" stroke-width="0.19" data-glyph-w="36.479150390625" data-glyph-h="136.89427734375" data-glyph-ascender="111.776572265625" data-glyph-descender="-25.117705078125"></path><path d="M57.70-70.84L57.70-70.84L58.09-72.35L60.98-82.26Q62.04-85.93 65.44-85.93L65.44-85.93L78.42-85.93Q79.64-85.93 80.25-85.32L80.25-85.32Q80.98-84.54 80.98-83.76L80.98-83.76Q80.98-83.54 80.92-83.09L80.92-83.09Q80.81-82.54 80.81-82.09L80.81-82.09Q80.81-78.97 84.93-78.97L84.93-78.97L105.82-78.97Q109.77-78.97 109.77-74.74L109.77-74.74L109.77 7.18Q109.77 11.42 105.82 11.42L105.82 11.42L91.34 11.42Q87.38 11.42 87.38 7.18L87.38 7.18L87.38-63.21Q87.38-68.39 82.65-68.39L82.65-68.39Q79.03-68.39 77.30-68.34L77.30-68.34Q76.75-68.34 60.98-68.34L60.98-68.34Q58.70-68.34 57.70-70.84ZM56.42-74.29L56.42-74.29L56.42 6.96Q56.42 11.19 52.46 11.19L52.46 11.19L8.74 11.19Q4.79 11.19 4.79 6.96L4.79 6.96L4.79-74.29Q4.79-76.47 5.79-77.47L5.79-77.47Q6.79-78.53 7.91-78.53L7.91-78.53L8.86-78.53Q12.64-78.53 13.81-81.59L13.81-81.59L14.26-82.82Q15.32-85.77 18.66-85.77L18.66-85.77L32.25-85.77Q33.47-85.77 34.08-85.10L34.08-85.10Q34.86-84.26 34.86-83.60L34.86-83.60Q34.86-83.37 34.75-82.82L34.75-82.82Q34.59-82.20 34.59-81.70L34.59-81.70Q34.59-78.53 38.76-78.53L38.76-78.53L52.46-78.53Q56.42-78.53 56.42-74.29ZM35.59-3.79L35.59-3.79L35.59-27.29Q35.59-32.41 30.85-32.41L30.85-32.41L30.35-32.41Q25.62-32.41 25.62-27.29L25.62-27.29L25.62-3.79Q25.62 1.39 30.35 1.39L30.35 1.39L30.85 1.39Q35.59 1.39 35.59-3.79ZM30.85-68.73L30.85-68.73L30.35-68.73Q25.62-68.73 25.62-63.55L25.62-63.55L25.62-47.40Q25.62-42.22 30.35-42.22L30.35-42.22L30.85-42.22Q35.59-42.22 35.59-47.40L35.59-47.40L35.59-63.55Q35.59-68.73 30.85-68.73ZM75.85-58.81L75.85-58.81L85.21 7.07Q85.32 7.74 85.32 8.19L85.32 8.19Q85.32 11.19 81.87 11.19L81.87 11.19L71.96 11.19Q68.39 11.19 67.89 7.24L67.89 7.24L58.98-58.65Q58.92-59.03 58.92-59.76L58.92-59.76Q58.92-62.77 62.38-62.77L62.38-62.77L71.73-62.77Q75.30-62.77 75.85-58.81Z" transform="translate(344.01788085937505 453.956572265625) " fill="rgb(255, 76, 27)" stroke="rgb(255, 76, 27)" stroke-width="0.19" data-glyph-w="114.06" data-glyph-h="136.89427734375" data-glyph-ascender="111.776572265625" data-glyph-descender="-25.117705078125"></path><path d="M45.78 7.07L41.88-35.48Q42.38-40.54 42.61-43.05L42.61-43.05Q42.72-44.11 43.27-48.29L43.27-48.29L45.61-65.72Q46.17-69.67 49.79-69.67L49.79-69.67L52.63-69.67Q54.30-69.67 55.25-68.56L55.25-68.56Q55.97-67.72 55.97-66.72L55.97-66.72Q55.97-66.05 55.92-65.55L55.92-65.55L51.57-38.04Q51.40-37.04 51.40-36.59L51.40-36.59Q51.40-35.98 51.52-35.03L51.52-35.03L56.31 7.02Q56.36 7.35 56.36 7.96L56.36 7.96Q56.36 9.13 55.58 10.02L55.58 10.02Q54.58 11.14 52.85 11.14L52.85 11.14L49.90 11.14Q46.17 11.14 45.78 7.07L45.78 7.07ZM41.05-43.05L41.83-35.64L37.87 7.30Q37.54 11.36 33.69 11.36L33.69 11.36L30.52 11.36Q26.96 11.36 26.96 8.13L26.96 8.13Q26.96 7.57 27.01 7.18L27.01 7.18L31.69-34.86Q31.80-36.14 31.80-36.20L31.80-36.20L31.80-36.42L31.75-36.70L31.58-37.82L27.40-65.38Q27.35-65.83 27.35-66.50L27.35-66.50Q27.35-67.50 28.07-68.34L28.07-68.34Q29.02-69.45 30.80-69.45L30.80-69.45L33.81-69.45Q37.54-69.45 38.04-65.50L38.04-65.50L40.38-48.06Q40.82-44.61 41.05-43.05L41.05-43.05ZM76.63 7.07L72.85-34.31L69.06 7.07Q68.67 11.14 64.94 11.14L64.94 11.14L61.76 11.14Q58.20 11.14 58.20 7.91L58.20 7.91Q58.20 7.41 58.26 7.02L58.26 7.02L62.88-35.09Q63.04-36.31 63.04-36.42L63.04-36.42Q63.04-36.48 62.99-36.92L62.99-36.92L62.82-38.04L58.65-65.55Q58.59-66.05 58.59-66.78L58.59-66.78Q58.59-67.72 59.31-68.56L59.31-68.56Q60.26-69.67 61.99-69.67L61.99-69.67L65.05-69.67Q68.73-69.67 69.23-65.72L69.23-65.72L71.57-48.29Q71.73-47.01 71.90-45.72L71.90-45.72Q72.01-45.06 72.74-37.76L72.74-37.76Q73.74-45.06 73.79-45.50L73.79-45.50L74.13-48.29L76.47-65.72Q77.02-69.67 80.70-69.67L80.70-69.67L83.71-69.67Q85.43-69.67 86.38-68.56L86.38-68.56Q87.10-67.72 87.10-66.78L87.10-66.78Q87.10-66.11 86.99-65.55L86.99-65.55L82.70-38.04Q82.54-36.87 82.54-36.53L82.54-36.53Q82.54-36.20 82.65-35.03L82.65-35.03L87.44 7.02Q87.49 7.35 87.49 7.96L87.49 7.96Q87.49 11.14 83.93 11.14L83.93 11.14L80.81 11.14Q77.02 11.14 76.63 7.07L76.63 7.07ZM24.39-68.50L24.39-68.50L24.39 7.18Q24.39 11.42 20.44 11.42L20.44 11.42L9.80 11.42Q5.85 11.42 5.85 7.18L5.85 7.18L5.85-79.25Q5.85-83.48 9.80-83.48L9.80-83.48L104.81-83.48Q108.77-83.48 108.77-79.25L108.77-79.25L108.77 7.18Q108.77 11.42 104.81 11.42L104.81 11.42L94.18 11.42Q90.22 11.42 90.22 7.18L90.22 7.18L90.22-68.50Q90.22-71.34 89.00-72.51L89.00-72.51Q87.72-73.68 84.77-73.68L84.77-73.68L29.91-73.68Q26.90-73.68 25.62-72.51L25.62-72.51Q24.39-71.34 24.39-68.50Z" transform="translate(458.07788085937506 453.956572265625) " fill="rgb(255, 76, 27)" stroke="rgb(255, 76, 27)" stroke-width="0.19" data-glyph-w="114.06" data-glyph-h="136.89427734375" data-glyph-ascender="111.776572265625" data-glyph-descender="-25.117705078125"></path><path d="M52.91 5.35L52.91 5.35Q52.85 8.35 52.63 9.02L52.63 9.02Q51.74 11.19 49.01 11.19L49.01 11.19L7.02 11.14Q3.06 11.14 3.06 7.24L3.06 7.24L3.06 3.68Q3.06 1.50 4.85 1.28L4.85 1.28Q7.74 0.95 7.63-1.73L7.63-1.73L7.63-2.06L5.63-61.93Q5.46-66.11 9.41-66.11L9.41-66.11L17.54-66.11Q21.33-66.11 21.50-61.93L21.50-61.93L23.73-3.62Q23.78-1.00 25.06 0.11L25.06 0.11Q26.34 1.28 29.24 1.28L29.24 1.28L48.95 1.28Q52.80 1.28 52.91 5.35ZM54.41 7.02L54.41 7.02L54.41-44.55Q54.41-48.79 58.09-48.79L58.09-48.79L60.37-48.79Q65.55-48.79 65.55-53.97L65.55-53.97L65.55-81.48Q65.55-85.71 69.51-85.71L69.51-85.71L85.55-85.71Q89.50-85.71 89.50-82.15L89.50-82.15L89.50-81.48Q89.50-77.02 94.96-77.02L94.96-77.02L107.27-77.02Q111.16-77.02 111.16-73.13L111.16-73.13L111.16-71.12Q111.16-67.22 107.27-67.22L107.27-67.22L94.96-67.22Q92.01-67.22 90.72-66.05L90.72-66.05Q89.50-64.88 89.50-62.10L89.50-62.10L89.50-53.97Q89.50-51.18 90.72-50.01L90.72-50.01Q92.01-48.79 94.96-48.79L94.96-48.79L105.54-48.79Q109.49-48.79 109.49-44.55L109.49-44.55L109.49 6.96Q109.49 11.19 105.54 11.19L105.54 11.19L58.37 11.19Q54.64 11.19 54.41 7.02ZM81.09 2.12L81.09 2.12L82.82 2.12Q87.88 2.12 87.88-3.01L87.88-3.01L87.88-34.59Q87.88-39.77 82.82-39.77L82.82-39.77L81.09-39.77Q76.02-39.77 76.02-34.59L76.02-34.59L76.02-3.01Q76.02 2.12 81.09 2.12ZM44.67-80.70L44.67-80.70L51.85-80.70Q55.80-80.70 55.80-76.80L55.80-76.80L55.80-74.18Q55.80-71.18 53.19-70.84L53.19-70.84Q49.51-70.40 49.34-66.66L49.34-66.66L46.84-8.02Q46.67-3.84 42.88-3.84L42.88-3.84L34.81-3.90Q32.86-3.90 31.86-4.96L31.86-4.96Q30.80-6.13 30.97-7.69L30.97-7.69L30.97-8.08L33.30-65.44Q33.30-65.66 33.30-66.00L33.30-66.00Q33.30-70.84 27.85-70.84L27.85-70.84L7.30-70.84Q3.34-70.84 3.34-74.74L3.34-74.74L3.34-76.80Q3.34-80.70 7.30-80.70L7.30-80.70L13.48-80.70Q17.15-80.70 17.49-83.65L17.49-83.65Q17.77-85.99 19.99-85.99L19.99-85.99L38.15-85.99Q40.38-85.99 40.66-83.65L40.66-83.65Q40.99-80.70 44.67-80.70Z" transform="translate(572.1378808593751 453.956572265625) " fill="rgb(255, 76, 27)" stroke="rgb(255, 76, 27)" stroke-width="0.19" data-glyph-w="114.06" data-glyph-h="136.89427734375" data-glyph-ascender="111.776572265625" data-glyph-descender="-25.117705078125"></path></g></svg></g>
        </g>
  </svg>